<svg xmlns="http://www.w3.org/2000/svg" width="24" height="24" viewBox="0 0 32 32" fill="#25D366" alt="WhatsApp">
    <path d="M16 .003C7.163.003 0 7.16 0 16c0 2.83.744 5.53 2.145 7.936L0 32l8.293-2.127A15.89 15.89 0 0 0 16 32c8.837 0 16-7.16 16-16s-7.163-15.997-16-15.997zm0 29.126c-2.506 0-4.95-.658-7.094-1.905l-.508-.298-4.926 1.262 1.307-4.813-.33-.522a12.994 12.994 0 0 1-1.983-6.975c0-7.183 5.844-13.027 13.027-13.027 3.48 0 6.749 1.355 9.207 3.813A12.94 12.94 0 0 1 29.03 16c0 7.183-5.844 13.129-13.03 13.129zM23.156 19.1c-.366-.183-2.16-1.065-2.496-1.186-.336-.121-.583-.183-.83.183-.244.366-.954 1.187-1.17 1.431-.214.244-.429.275-.793.092-.366-.183-1.545-.571-2.942-1.823-1.087-.967-1.821-2.158-2.033-2.524-.214-.366-.023-.564.16-.747.165-.163.366-.427.55-.641.183-.213.244-.366.366-.61.122-.244.061-.458 0-.641-.061-.183-.793-1.915-1.087-2.623-.287-.685-.579-.593-.793-.603-.204-.008-.438-.01-.671-.01-.244 0-.641.092-.976.458s-1.28 1.251-1.28 3.049c0 1.798 1.31 3.538 1.494 3.782.183.244 2.577 3.938 6.248 5.515.873.377 1.553.603 2.085.77.875.278 1.671.239 2.3.145.702-.104 2.16-.881 2.464-1.731.306-.85.306-1.58.214-1.731-.091-.153-.336-.244-.702-.427z"/>
</svg>